<?xml version="1.0" standalone="no"?>
<svg viewBox="0 0 200 200" xmlns="http://www.w3.org/2000/svg">
  <path fill="#08BDBA" d="M36.2,-60.3C46,-50,52.3,-38.4,61.9,-25.8C71.4,-13.2,84.2,0.4,86.7,15.5C89.2,30.5,81.3,47.1,69.9,60.8C58.4,74.4,43.3,85.1,27.9,84.9C12.6,84.7,-2.9,73.6,-16.2,65.2C-29.6,56.7,-40.7,50.9,-52.8,42.6C-64.9,34.3,-77.8,23.7,-80.8,10.9C-83.9,-1.9,-76.9,-16.9,-69.7,-31.5C-62.6,-46.1,-55.2,-60.2,-43.5,-69.6C-31.9,-79,-15.9,-83.7,-1.4,-81.6C13.2,-79.5,26.4,-70.6,36.2,-60.3Z" transform="translate(100 100)" />
</svg>

